<svg xmlns="http://www.w3.org/2000/svg" viewBox="0 0 233.4 54.18"><defs><style>.cls-1{fill:#231f20;}.cls-2{fill:#42b4e7;}</style></defs><g id="Layer_2" data-name="Layer 2"><g id="Layer_1-2" data-name="Layer 1"><path class="cls-1" d="M72.08,49.65V4.15H83.63v45.5Z"/><path class="cls-1" d="M107.25,26.56,92,4.15h13.42l8.4,13.3c1-1.66,2.43-4,4.28-7s3.1-5.12,3.75-6.25H136l-15.3,22.48,16.27,23H123.23l-9.15-14.18q-1.65,2.78-4.8,7.73t-4,6.45h-14Z"/><path class="cls-1" d="M143.85,4.15h17.4q8.4,0,13.62,4.26a13.34,13.34,0,0,1,5.21,10.8q0,7.49-5.44,11.61a21.56,21.56,0,0,1-13.39,4.11H155.4V49.65H143.85ZM155.4,26.7h3.83q9.15,0,9.15-7.49,0-6.75-8.48-6.75h-4.5Z"/><path class="cls-1" d="M184.2,26.77q0-10.47,6.72-16.91T208.8,3.41q11.25,0,17.93,6.41t6.67,17q0,10.46-6.71,16.9T208.8,50.12q-11.25,0-17.92-6.41T184.2,26.77Zm15.68-10.16q-3.3,3.74-3.3,10.16t3.3,10.15a12.5,12.5,0,0,0,17.85,0q3.3-3.73,3.3-10.15t-3.3-10.16a12.5,12.5,0,0,0-17.85,0Z"/><path class="cls-2" d="M54.18,42.27a11.95,11.95,0,0,1-23.89,0V42.2h0A18.76,18.76,0,0,0,11.92,23.84h0A11.92,11.92,0,1,1,23.83,11.55v.52c0,.12,0,.25,0,.37h0A18.78,18.78,0,0,0,42.59,30.35c.27,0,.54,0,.81.06h0A11.91,11.91,0,0,1,54.18,42.27Z"/><path class="cls-2" d="M23.83,11.92v0Z"/><circle class="cls-2" cx="42.27" cy="11.92" r="11.92"/><circle class="cls-2" cx="11.92" cy="42.27" r="11.92"/></g></g></svg>