<svg xmlns="http://www.w3.org/2000/svg" viewBox="0 0 238.54 91.53"><defs><style>.cls-1{font-size:75px;fill:#231f20;font-family:Hind-Bold, Hind;font-weight:700;}.cls-2{fill:#42b4e7;}</style></defs><g id="Layer_2" data-name="Layer 2"><g id="Layer_1-2" data-name="Layer 1"><text class="cls-1" transform="translate(66.46 56.63) scale(1 0.9)">IXPO</text><path class="cls-2" d="M54.18,49.25a11.95,11.95,0,0,1-23.89,0v-.07h0A18.74,18.74,0,0,0,11.92,30.83h0A11.92,11.92,0,1,1,23.83,18.53v.52c0,.13,0,.25,0,.37h0A18.78,18.78,0,0,0,42.59,37.34c.27,0,.54,0,.81,0h0A11.91,11.91,0,0,1,54.18,49.25Z"/><path class="cls-2" d="M23.83,18.9v0Z"/><circle class="cls-2" cx="42.27" cy="18.9" r="11.92"/><circle class="cls-2" cx="11.92" cy="49.25" r="11.92"/></g></g></svg>